<svg width="27" height="11" viewBox="0 0 27 11" fill="none" xmlns="http://www.w3.org/2000/svg">
<g clip-path="url(#clip0_86_20)">
<path d="M11.9226 0.59306L11.9232 0.592652C12.1108 0.470851 12.3379 0.37182 12.5923 0.303569C12.8466 0.235365 13.1208 0.199901 13.3987 0.199901C13.6766 0.199901 13.9509 0.235365 14.2051 0.303569C14.4596 0.37182 14.6866 0.470851 14.8743 0.592653L14.8749 0.593059L26.0329 7.77692L26.0335 7.77732C26.2231 7.89836 26.3667 8.03808 26.4617 8.18497C26.5562 8.33103 26.6013 8.48155 26.6013 8.62887C26.6013 8.77619 26.5562 8.92671 26.4617 9.07277C26.3667 9.21966 26.2231 9.35938 26.0335 9.48041L26.0323 9.48122C25.8446 9.60303 25.6176 9.70205 25.3631 9.7703C25.1088 9.83851 24.8346 9.87397 24.5567 9.87397C24.2788 9.87397 24.0046 9.83851 23.7503 9.7703C23.4959 9.70205 23.2688 9.60303 23.0812 9.48122L23.0807 9.48093L13.5072 3.30281L13.3987 3.23283L13.2903 3.30281L3.7169 9.48082C3.71686 9.48084 3.71683 9.48087 3.71679 9.48089C3.33454 9.72695 2.80392 9.87152 2.24073 9.87152C1.96307 9.87152 1.68907 9.83628 1.43478 9.76846C1.18031 9.7006 0.952932 9.6021 0.764562 9.48082C0.381847 9.23441 0.2 8.92299 0.2 8.62887C0.2 8.48154 0.244794 8.33106 0.338763 8.185C0.433262 8.03812 0.576041 7.8983 0.764562 7.77692L11.9226 0.59306Z" fill="white" stroke="#222222" stroke-width="0.4"/>
</g>
<defs>
<clipPath id="clip0_86_20">
<rect width="27" height="11" fill="white"/>
</clipPath>
</defs>
</svg>
