<svg width="27" height="10" viewBox="0 0 27 10" fill="none" xmlns="http://www.w3.org/2000/svg">
<g clip-path="url(#clip0_86_21)">
<path d="M11.9226 9.48092L11.9232 9.48132C12.1108 9.60312 12.3379 9.70215 12.5923 9.77041C12.8466 9.83861 13.1208 9.87407 13.3987 9.87407C13.6766 9.87407 13.9509 9.83861 14.2051 9.77041C14.4596 9.70215 14.6866 9.60312 14.8743 9.48132L14.8749 9.48092L26.0329 2.29705L26.0335 2.29665C26.2231 2.17561 26.3667 2.03589 26.4617 1.889C26.5562 1.74294 26.6013 1.59242 26.6013 1.4451C26.6013 1.29778 26.5562 1.14727 26.4617 1.00121C26.3667 0.854316 26.2231 0.714595 26.0335 0.593563L26.0323 0.59275C25.8446 0.470949 25.6176 0.371922 25.3631 0.30367C25.1088 0.235465 24.8346 0.2 24.5567 0.2C24.2788 0.2 24.0046 0.235465 23.7503 0.30367C23.4959 0.371922 23.2688 0.470949 23.0812 0.592751L23.0807 0.593041L13.5072 6.77117L13.3987 6.84115L13.2903 6.77117L3.7169 0.593156C3.71686 0.593133 3.71683 0.593109 3.71679 0.593086C3.33454 0.347021 2.80392 0.202453 2.24073 0.202453C1.96307 0.202453 1.68907 0.237698 1.43478 0.305513C1.18031 0.373375 0.952932 0.471878 0.764562 0.593156C0.381847 0.83956 0.2 1.15098 0.2 1.4451C0.2 1.59243 0.244794 1.74291 0.338763 1.88897C0.433262 2.03586 0.576041 2.17568 0.764562 2.29705L11.9226 9.48092Z" fill="white" stroke="#222222" stroke-width="0.4"/>
</g>
<defs>
<clipPath id="clip0_86_21">
<rect width="27" height="10" fill="white"/>
</clipPath>
</defs>
</svg>
