<svg width="22" height="23" viewBox="0 0 22 23" fill="none" xmlns="http://www.w3.org/2000/svg">
<path d="M4.11086 23C3.40686 23 2.80762 22.7705 2.31314 22.3116C1.81867 21.8527 1.57143 21.297 1.57143 20.6446V2.58148H0V1.12302H6.28571V0H15.7143V1.12302H22V2.58148H20.4286V20.6446C20.4286 21.3155 20.1866 21.876 19.7026 22.3262C19.2186 22.7764 18.6141 23.001 17.8891 23H4.11086ZM18.8571 2.58148H3.14286V20.6446C3.14286 20.9061 3.23348 21.121 3.41471 21.2892C3.59595 21.4574 3.828 21.5415 4.11086 21.5415H17.8907C18.1317 21.5415 18.3532 21.4482 18.5554 21.2615C18.7576 21.0748 18.8582 20.8687 18.8571 20.6431V2.58148ZM7.55543 18.6246H9.12686V5.49841H7.55543V18.6246ZM12.8731 18.6246H14.4446V5.49841H12.8731V18.6246Z" fill="white"/>
</svg>
