<svg width="24" height="24" viewBox="0 0 24 24" fill="none" xmlns="http://www.w3.org/2000/svg">
<path d="M16.4 19.3333L18.6 21.7778L23 16.8889M12 15.6667H7.6C5.54985 15.6667 4.52479 15.6667 3.7162 16.0388C2.63807 16.5351 1.78151 17.4868 1.33493 18.6847C1 19.5832 1 20.722 1 23M15.85 1.35537C17.4625 2.08063 18.6 3.83716 18.6 5.88889C18.6 7.94062 17.4625 9.69721 15.85 10.4224M13.65 5.88889C13.65 8.58895 11.68 10.7778 9.25 10.7778C6.81995 10.7778 4.85 8.58895 4.85 5.88889C4.85 3.18883 6.81995 1 9.25 1C11.68 1 13.65 3.18883 13.65 5.88889Z" stroke="white" stroke-width="1.5" stroke-linecap="round" stroke-linejoin="round"/>
</svg>
