<svg width="40" height="40" viewBox="0 0 40 40" fill="none" xmlns="http://www.w3.org/2000/svg">
<rect y="40" width="40" height="40" rx="20" transform="rotate(-90 0 40)" fill="#222222"/>
<path d="M18.9226 29.4809L18.9232 29.4813C19.1108 29.6031 19.3379 29.7022 19.5923 29.7704C19.8466 29.8386 20.1208 29.8741 20.3987 29.8741C20.6766 29.8741 20.9509 29.8386 21.2051 29.7704C21.4596 29.7022 21.6866 29.6031 21.8743 29.4813L21.8749 29.4809L33.0329 22.2971L33.0335 22.2966C33.2231 22.1756 33.3667 22.0359 33.4617 21.889C33.5562 21.7429 33.6013 21.5924 33.6013 21.4451C33.6013 21.2978 33.5562 21.1473 33.4617 21.0012C33.3667 20.8543 33.2231 20.7146 33.0335 20.5936L33.0323 20.5928C32.8446 20.4709 32.6176 20.3719 32.3631 20.3037C32.1088 20.2355 31.8346 20.2 31.5567 20.2C31.2788 20.2 31.0046 20.2355 30.7503 20.3037C30.4959 20.3719 30.2688 20.4709 30.0812 20.5928L30.0807 20.593L20.5072 26.7712L20.3987 26.8411L20.2903 26.7712L10.7169 20.5932C10.7169 20.5931 10.7168 20.5931 10.7168 20.5931C10.3345 20.347 9.80392 20.2025 9.24073 20.2025C8.96307 20.2025 8.68907 20.2377 8.43478 20.3055C8.18031 20.3734 7.95293 20.4719 7.76456 20.5932C7.38185 20.8396 7.2 21.151 7.2 21.4451C7.2 21.5924 7.24479 21.7429 7.33876 21.889C7.43326 22.0359 7.57604 22.1757 7.76456 22.2971L18.9226 29.4809Z" fill="white" stroke="#222222" stroke-width="0.4"/>
</svg>
