<svg width="40" height="40" viewBox="0 0 40 40" fill="none" xmlns="http://www.w3.org/2000/svg">
<rect y="40" width="40" height="40" rx="20" transform="rotate(-90 0 40)" fill="#222222"/>
<path d="M18.9226 10.5931L18.9232 10.5927C19.1108 10.4709 19.3379 10.3718 19.5923 10.3036C19.8466 10.2354 20.1208 10.1999 20.3987 10.1999C20.6766 10.1999 20.9509 10.2354 21.2051 10.3036C21.4596 10.3718 21.6866 10.4709 21.8743 10.5927L21.8749 10.5931L33.0329 17.7769L33.0335 17.7773C33.2231 17.8984 33.3667 18.0381 33.4617 18.185C33.5562 18.331 33.6013 18.4816 33.6013 18.6289C33.6013 18.7762 33.5562 18.9267 33.4617 19.0728C33.3667 19.2197 33.2231 19.3594 33.0335 19.4804L33.0323 19.4812C32.8446 19.603 32.6176 19.7021 32.3631 19.7703C32.1088 19.8385 31.8346 19.874 31.5567 19.874C31.2788 19.874 31.0046 19.8385 30.7503 19.7703C30.4959 19.7021 30.2688 19.603 30.0812 19.4812L30.0807 19.4809L20.5072 13.3028L20.3987 13.2328L20.2903 13.3028L10.7169 19.4808C10.7169 19.4808 10.7168 19.4809 10.7168 19.4809C10.3345 19.727 9.80392 19.8715 9.24073 19.8715C8.96307 19.8715 8.68907 19.8363 8.43478 19.7685C8.18031 19.7006 7.95293 19.6021 7.76456 19.4808C7.38185 19.2344 7.2 18.923 7.2 18.6289C7.2 18.4815 7.24479 18.3311 7.33876 18.185C7.43326 18.0381 7.57604 17.8983 7.76456 17.7769L18.9226 10.5931Z" fill="white" stroke="#222222" stroke-width="0.4"/>
</svg>
