<svg width="35" height="35" viewBox="0 0 35 35" fill="none" xmlns="http://www.w3.org/2000/svg">
<rect y="35" width="35" height="35" rx="17.5" transform="rotate(-90 0 35)" fill="#222222"/>
<path fill-rule="evenodd" clip-rule="evenodd" d="M17.5 30.1875C10.4929 30.1875 4.8125 24.5053 4.8125 17.5C4.8125 10.4947 10.4929 4.8125 17.5 4.8125C24.5071 4.8125 30.1875 10.4947 30.1875 17.5C30.1875 24.5053 24.5071 30.1875 17.5 30.1875ZM17.5 3C9.49147 3 3 9.48875 3 17.5C3 25.5112 9.49147 32 17.5 32C25.5085 32 32 25.5112 32 17.5C32 9.48875 25.5085 3 17.5 3ZM22.681 12.3163C22.3239 11.9628 21.7467 11.9628 21.3896 12.3163L17.4946 16.2131L13.6557 12.3706C13.3013 12.0172 12.7268 12.0172 12.3742 12.3706C12.0199 12.724 12.0199 13.3041 12.3742 13.6575L16.2131 17.4909L12.3471 21.3606C11.9909 21.7141 11.9909 22.294 12.3471 22.6565C12.7041 23.0099 13.2823 23.0099 13.6394 22.6565L17.5054 18.7869L21.3443 22.6294C21.6987 22.9828 22.2732 22.9828 22.6266 22.6294C22.981 22.276 22.981 21.6959 22.6266 21.3425L18.7869 17.5091L22.681 13.6122C23.0372 13.2497 23.0372 12.6788 22.681 12.3163Z" fill="white"/>
</svg>
