<svg width="40" height="40" viewBox="0 0 40 40" fill="none" xmlns="http://www.w3.org/2000/svg">
<rect y="40" width="40" height="40" rx="20" transform="rotate(-90 0 40)" fill="#222222"/>
<path d="M13.2977 31C12.5617 31 11.9352 30.7705 11.4183 30.3116C10.9013 29.8527 10.6429 29.297 10.6429 28.6446V10.5815H9V9.12302H15.5714V8H25.4286V9.12302H32V10.5815H30.3571V28.6446C30.3571 29.3155 30.1041 29.876 29.5981 30.3262C29.0921 30.7764 28.4602 31.001 27.7023 31H13.2977ZM28.7143 10.5815H12.2857V28.6446C12.2857 28.9061 12.3805 29.121 12.5699 29.2892C12.7594 29.4574 13.002 29.5415 13.2977 29.5415H27.7039C27.9558 29.5415 28.1875 29.4482 28.3989 29.2615C28.6102 29.0748 28.7154 28.8687 28.7143 28.6431V10.5815ZM16.8989 26.6246H18.5417V13.4984H16.8989V26.6246ZM22.4583 26.6246H24.1011V13.4984H22.4583V26.6246Z" fill="white"/>
</svg>
