<svg width="22" height="22" viewBox="0 0 22 22" fill="none" xmlns="http://www.w3.org/2000/svg">
<rect width="22" height="22" rx="11" fill="#EAEAEA"/>
<mask id="path-2-outside-1_229_188" maskUnits="userSpaceOnUse" x="7" y="3" width="9" height="16" fill="black">
<rect fill="white" x="7" y="3" width="9" height="16"/>
<path d="M11.8027 14.0449H10.6309C10.6374 13.4915 10.6927 13.0228 10.7969 12.6387C10.901 12.2546 11.0703 11.8997 11.3047 11.5742C11.5391 11.2487 11.8548 10.8906 12.252 10.5C12.597 10.1549 12.903 9.83594 13.1699 9.54297C13.4368 9.24349 13.6452 8.91471 13.7949 8.55664C13.9512 8.19857 14.0293 7.75911 14.0293 7.23828C14.0293 6.72396 13.9382 6.27148 13.7559 5.88086C13.5736 5.49023 13.3001 5.18424 12.9355 4.96289C12.571 4.74154 12.1152 4.63086 11.5684 4.63086C11.0671 4.63086 10.6178 4.72852 10.2207 4.92383C9.83008 5.11914 9.52083 5.40234 9.29297 5.77344C9.07161 6.13802 8.95443 6.58073 8.94141 7.10156H7.7793C7.79232 6.35938 7.9681 5.72786 8.30664 5.20703C8.65169 4.67969 9.10742 4.2793 9.67383 4.00586C10.2467 3.72591 10.8783 3.58594 11.5684 3.58594C12.3496 3.58594 13.0072 3.73893 13.541 4.04492C14.0814 4.35091 14.4915 4.77734 14.7715 5.32422C15.0579 5.87109 15.2012 6.50586 15.2012 7.22852C15.2012 7.80794 15.1035 8.33203 14.9082 8.80078C14.7129 9.26302 14.4427 9.69922 14.0977 10.1094C13.7526 10.5195 13.3522 10.9329 12.8965 11.3496C12.4798 11.7077 12.1934 12.1178 12.0371 12.5801C11.8809 13.0358 11.8027 13.5241 11.8027 14.0449ZM10.4746 17.3066C10.4746 17.0853 10.5462 16.8997 10.6895 16.75C10.8327 16.5938 11.028 16.5156 11.2754 16.5156C11.5228 16.5156 11.7181 16.5938 11.8613 16.75C12.0111 16.8997 12.0859 17.0853 12.0859 17.3066C12.0859 17.5215 12.0111 17.707 11.8613 17.8633C11.7181 18.013 11.5228 18.0879 11.2754 18.0879C11.028 18.0879 10.8327 18.013 10.6895 17.8633C10.5462 17.707 10.4746 17.5215 10.4746 17.3066Z"/>
</mask>
<path d="M11.8027 14.0449H10.6309C10.6374 13.4915 10.6927 13.0228 10.7969 12.6387C10.901 12.2546 11.0703 11.8997 11.3047 11.5742C11.5391 11.2487 11.8548 10.8906 12.252 10.5C12.597 10.1549 12.903 9.83594 13.1699 9.54297C13.4368 9.24349 13.6452 8.91471 13.7949 8.55664C13.9512 8.19857 14.0293 7.75911 14.0293 7.23828C14.0293 6.72396 13.9382 6.27148 13.7559 5.88086C13.5736 5.49023 13.3001 5.18424 12.9355 4.96289C12.571 4.74154 12.1152 4.63086 11.5684 4.63086C11.0671 4.63086 10.6178 4.72852 10.2207 4.92383C9.83008 5.11914 9.52083 5.40234 9.29297 5.77344C9.07161 6.13802 8.95443 6.58073 8.94141 7.10156H7.7793C7.79232 6.35938 7.9681 5.72786 8.30664 5.20703C8.65169 4.67969 9.10742 4.2793 9.67383 4.00586C10.2467 3.72591 10.8783 3.58594 11.5684 3.58594C12.3496 3.58594 13.0072 3.73893 13.541 4.04492C14.0814 4.35091 14.4915 4.77734 14.7715 5.32422C15.0579 5.87109 15.2012 6.50586 15.2012 7.22852C15.2012 7.80794 15.1035 8.33203 14.9082 8.80078C14.7129 9.26302 14.4427 9.69922 14.0977 10.1094C13.7526 10.5195 13.3522 10.9329 12.8965 11.3496C12.4798 11.7077 12.1934 12.1178 12.0371 12.5801C11.8809 13.0358 11.8027 13.5241 11.8027 14.0449ZM10.4746 17.3066C10.4746 17.0853 10.5462 16.8997 10.6895 16.75C10.8327 16.5938 11.028 16.5156 11.2754 16.5156C11.5228 16.5156 11.7181 16.5938 11.8613 16.75C12.0111 16.8997 12.0859 17.0853 12.0859 17.3066C12.0859 17.5215 12.0111 17.707 11.8613 17.8633C11.7181 18.013 11.5228 18.0879 11.2754 18.0879C11.028 18.0879 10.8327 18.013 10.6895 17.8633C10.5462 17.707 10.4746 17.5215 10.4746 17.3066Z" fill="black"/>
<path d="M11.8027 14.0449V14.3449H12.1027V14.0449H11.8027ZM10.6309 14.0449L10.3309 14.0414L10.3273 14.3449H10.6309V14.0449ZM12.252 10.5L12.4623 10.7139L12.4641 10.7121L12.252 10.5ZM13.1699 9.54297L13.3917 9.74503L13.3939 9.74258L13.1699 9.54297ZM13.7949 8.55664L13.5199 8.43664L13.5181 8.4409L13.7949 8.55664ZM10.2207 4.92383L10.0883 4.65462L10.0865 4.6555L10.2207 4.92383ZM9.29297 5.77344L9.03731 5.61646L9.03653 5.61774L9.29297 5.77344ZM8.94141 7.10156V7.40156H9.234L9.24131 7.10906L8.94141 7.10156ZM7.7793 7.10156L7.47934 7.0963L7.47399 7.40156H7.7793V7.10156ZM8.30664 5.20703L8.0556 5.04277L8.05511 5.04353L8.30664 5.20703ZM9.67383 4.00586L9.80425 4.27603L9.80554 4.2754L9.67383 4.00586ZM13.541 4.04492L13.3918 4.3052L13.3932 4.30597L13.541 4.04492ZM14.7715 5.32422L14.5044 5.46093L14.5057 5.46342L14.7715 5.32422ZM14.9082 8.80078L15.1846 8.91755L15.1851 8.91617L14.9082 8.80078ZM12.8965 11.3496L13.0921 11.5772L13.0989 11.571L12.8965 11.3496ZM12.0371 12.5801L12.3209 12.6774L12.3213 12.6761L12.0371 12.5801ZM10.6895 16.75L10.9063 16.9574L10.9106 16.9527L10.6895 16.75ZM11.8613 16.75L11.64 16.9529L11.6492 16.9621L11.8613 16.75ZM11.8613 17.8633L11.6447 17.6557L11.6445 17.6559L11.8613 17.8633ZM10.6895 17.8633L10.4683 18.066L10.4727 18.0706L10.6895 17.8633ZM11.8027 13.7449H10.6309V14.3449H11.8027V13.7449ZM10.9308 14.0485C10.9372 13.5113 10.9909 13.0694 11.0864 12.7172L10.5073 12.5602C10.3945 12.9761 10.3376 13.4717 10.3309 14.0414L10.9308 14.0485ZM11.0864 12.7172C11.1811 12.3681 11.3346 12.046 11.5481 11.7495L11.0612 11.3989C10.806 11.7534 10.621 12.141 10.5073 12.5602L11.0864 12.7172ZM11.5481 11.7495C11.7696 11.4419 12.073 11.0968 12.4623 10.7139L12.0416 10.2861C11.6366 10.6844 11.3085 11.0555 11.0612 11.3989L11.5481 11.7495ZM12.4641 10.7121C12.8117 10.3645 13.121 10.0421 13.3917 9.74502L12.9482 9.34092C12.685 9.62978 12.3823 9.94539 12.0398 10.2879L12.4641 10.7121ZM13.3939 9.74258C13.6822 9.41911 13.9087 9.06217 14.0717 8.67238L13.5181 8.4409C13.3817 8.76725 13.1915 9.06787 12.946 9.34336L13.3939 9.74258ZM14.0699 8.67662C14.2472 8.27035 14.3293 7.78737 14.3293 7.23828H13.7293C13.7293 7.73086 13.6552 8.12679 13.52 8.43666L14.0699 8.67662ZM14.3293 7.23828C14.3293 6.68848 14.2318 6.19128 14.0277 5.75399L13.484 6.00773C13.6445 6.35169 13.7293 6.75944 13.7293 7.23828H14.3293ZM14.0277 5.75399C13.8206 5.31026 13.5071 4.95892 13.0912 4.70645L12.7799 5.21933C13.0932 5.40957 13.3265 5.67021 13.484 6.00773L14.0277 5.75399ZM13.0912 4.70645C12.6682 4.44961 12.1549 4.33086 11.5684 4.33086V4.93086C12.0756 4.93086 12.4737 5.03346 12.7799 5.21933L13.0912 4.70645ZM11.5684 4.33086C11.0273 4.33086 10.5318 4.43651 10.0883 4.65462L10.3531 5.19303C10.7039 5.02052 11.1068 4.93086 11.5684 4.93086V4.33086ZM10.0865 4.6555C9.64597 4.87578 9.29458 5.19749 9.03732 5.61646L9.54862 5.93042C9.74709 5.6072 10.0142 5.3625 10.3549 5.19216L10.0865 4.6555ZM9.03653 5.61774C8.78258 6.03601 8.65554 6.53242 8.6415 7.09406L9.24131 7.10906C9.25331 6.62904 9.36065 6.24003 9.54941 5.92913L9.03653 5.61774ZM8.94141 6.80156H7.7793V7.40156H8.94141V6.80156ZM8.07925 7.10682C8.09148 6.40981 8.25581 5.8357 8.55817 5.37053L8.05511 5.04353C7.68039 5.62002 7.49316 6.30894 7.47934 7.0963L8.07925 7.10682ZM8.55768 5.37129C8.87295 4.88945 9.28703 4.52572 9.80425 4.27602L9.5434 3.73569C8.92782 4.03287 8.43043 4.46992 8.0556 5.04277L8.55768 5.37129ZM9.80554 4.2754C10.3341 4.01711 10.9201 3.88594 11.5684 3.88594V3.28594C10.8364 3.28594 10.1594 3.43471 9.54212 3.73632L9.80554 4.2754ZM11.5684 3.88594C12.3111 3.88594 12.9141 4.03136 13.3918 4.3052L13.6902 3.78464C13.1003 3.4465 12.3881 3.28594 11.5684 3.28594V3.88594ZM13.3932 4.30597C13.8831 4.58339 14.2515 4.96685 14.5044 5.46092L15.0385 5.18752C14.7315 4.58783 14.2797 4.11843 13.6888 3.78387L13.3932 4.30597ZM14.5057 5.46342C14.7661 5.96057 14.9012 6.54607 14.9012 7.22852H15.5012C15.5012 6.46565 15.3497 5.78162 15.0372 5.18502L14.5057 5.46342ZM14.9012 7.22852C14.9012 7.77389 14.8094 8.258 14.6313 8.6854L15.1851 8.91617C15.3977 8.40606 15.5012 7.842 15.5012 7.22852H14.9012ZM14.6319 8.68402C14.449 9.11678 14.1951 9.5275 13.8681 9.91625L14.3272 10.3025C14.6903 9.87094 14.9768 9.40926 15.1845 8.91755L14.6319 8.68402ZM13.8681 9.91625C13.5326 10.315 13.1415 10.7191 12.6941 11.1282L13.0989 11.571C13.5629 11.1468 13.9726 10.724 14.3272 10.3025L13.8681 9.91625ZM12.701 11.1221C12.2487 11.5107 11.9285 11.9646 11.7529 12.484L12.3213 12.6761C12.4582 12.2711 12.7109 11.9047 13.092 11.5771L12.701 11.1221ZM11.7533 12.4828C11.5855 12.9723 11.5027 13.4937 11.5027 14.0449H12.1027C12.1027 13.5545 12.1762 13.0993 12.3209 12.6774L11.7533 12.4828ZM10.7746 17.3066C10.7746 17.1567 10.8203 17.0472 10.9062 16.9574L10.4727 16.5426C10.2721 16.7523 10.1746 17.0138 10.1746 17.3066H10.7746ZM10.9106 16.9527C10.9874 16.869 11.0967 16.8156 11.2754 16.8156V16.2156C10.9593 16.2156 10.678 16.3185 10.4683 16.5473L10.9106 16.9527ZM11.2754 16.8156C11.4541 16.8156 11.5634 16.869 11.6402 16.9527L12.0825 16.5473C11.8728 16.3185 11.5915 16.2156 11.2754 16.2156V16.8156ZM11.6492 16.9621C11.7399 17.0528 11.7859 17.1608 11.7859 17.3066H12.3859C12.3859 17.0097 12.2822 16.7466 12.0735 16.5379L11.6492 16.9621ZM11.7859 17.3066C11.7859 17.4435 11.7414 17.5549 11.6447 17.6557L12.0779 18.0709C12.2807 17.8592 12.3859 17.5995 12.3859 17.3066H11.7859ZM11.6445 17.6559C11.5687 17.7351 11.4581 17.7879 11.2754 17.7879V18.3879C11.5875 18.3879 11.8674 18.2909 12.0781 18.0706L11.6445 17.6559ZM11.2754 17.7879C11.0927 17.7879 10.982 17.7351 10.9062 17.6559L10.4727 18.0706C10.6833 18.2909 10.9633 18.3879 11.2754 18.3879V17.7879ZM10.9106 17.6606C10.8188 17.5605 10.7746 17.4476 10.7746 17.3066H10.1746C10.1746 17.5954 10.2736 17.8536 10.4683 18.066L10.9106 17.6606Z" fill="black" mask="url(#path-2-outside-1_229_188)"/>
</svg>
