<?xml version="1.0" standalone="no"?>
<!DOCTYPE svg PUBLIC "-//W3C//DTD SVG 20010904//EN"
 "http://www.w3.org/TR/2001/REC-SVG-20010904/DTD/svg10.dtd">
<svg version="1.0" xmlns="http://www.w3.org/2000/svg"
 width="1663.000000pt" height="1366.000000pt" viewBox="0 0 1663.000000 1366.000000"
 preserveAspectRatio="xMidYMid meet">

<g transform="translate(0.000000,1366.000000) scale(0.100000,-0.100000)"
fill="#000000" stroke="none">
<path d="M5085 10820 c-11 -5 -505 -494 -1097 -1087 l-1078 -1078 0 -47 c0
-38 6 -54 28 -78 34 -39 94 -50 138 -27 16 9 486 473 1044 1031 l1015 1016
1026 -1026 c965 -965 1028 -1026 1066 -1031 54 -7 100 18 120 64 34 82 97 12
-1050 1162 -579 579 -1070 1066 -1091 1082 -40 29 -81 36 -121 19z"/>
<path d="M1632 8772 c-1698 -1693 -1652 -1644 -1608 -1681 11 -9 91 -11 298
-9 252 3 287 5 318 21 34 18 2945 2932 2945 2948 0 10 -314 339 -323 338 -4 0
-737 -728 -1630 -1617z"/>
<path d="M13190 10071 c-244 -35 -391 -153 -446 -358 -18 -68 -21 -246 -5
-315 22 -94 52 -158 103 -213 89 -98 176 -132 402 -160 166 -20 248 -43 300
-86 48 -41 66 -82 66 -156 -1 -77 -16 -140 -45 -185 -50 -75 -190 -113 -333
-88 -111 18 -169 71 -182 165 l-5 40 -167 3 -168 2 0 -53 c0 -111 45 -232 116
-308 108 -114 252 -161 499 -160 223 0 366 43 470 142 103 98 147 230 149 449
1 155 -19 241 -76 326 -75 111 -184 159 -440 194 -309 42 -361 78 -362 245 0
64 5 90 23 128 33 69 78 90 204 95 170 7 244 -32 267 -143 l12 -55 166 2 167
3 -3 35 c-6 61 -32 151 -62 210 -55 110 -162 188 -305 225 -71 18 -267 27
-345 16z"/>
<path d="M9710 9140 l0 -930 163 2 162 3 3 235 c1 129 -4 388 -12 575 -9 186
-14 340 -13 341 1 2 122 -257 269 -574 l267 -577 163 0 163 0 0 925 0 925
-165 0 -165 0 -3 -185 c-3 -162 20 -829 33 -964 2 -27 1 -45 -4 -40 -4 5 -126
276 -271 602 l-264 592 -163 0 -163 0 0 -930z"/>
<path d="M11240 9140 l0 -930 163 2 162 3 3 235 c1 129 -4 388 -12 575 -9 186
-14 340 -13 341 1 2 122 -257 269 -574 l267 -577 163 0 163 0 0 925 0 925
-165 0 -165 0 -3 -185 c-3 -162 20 -829 33 -964 2 -27 1 -45 -4 -40 -4 5 -126
276 -271 602 l-264 592 -163 0 -163 0 0 -930z"/>
<path d="M15400 9362 c0 -669 1 -713 19 -785 26 -100 53 -150 117 -217 62 -66
119 -99 224 -132 66 -20 95 -23 240 -23 181 0 242 11 358 65 76 35 169 124
205 196 63 124 62 110 62 889 l0 710 -165 0 -165 0 -5 -695 c-5 -688 -5 -695
-27 -735 -51 -95 -126 -135 -258 -135 -74 0 -99 4 -140 24 -60 28 -77 46 -107
111 l-23 50 -3 693 -3 692 -164 0 -165 0 0 -708z"/>
<path d="M14102 9913 l3 -148 193 -3 192 -2 0 -775 0 -775 165 0 165 0 0 775
0 775 190 0 190 0 0 150 0 150 -550 0 -551 0 3 -147z"/>
<path d="M5925 8291 c-26 -11 -51 -40 -64 -74 -25 -66 -28 -62 500 -592 l499
-500 -426 -425 -425 -425 -65 69 c-71 76 -133 190 -159 291 -31 122 -13 298
42 414 19 41 24 64 20 94 -5 38 -36 71 -438 473 l-433 433 286 3 287 3 30 29
c54 51 50 131 -7 176 -24 19 -42 20 -473 20 l-447 0 -31 -26 c-33 -27 -48 -76
-36 -121 4 -19 172 -194 507 -530 l501 -502 -13 -43 c-42 -139 -52 -317 -25
-447 34 -164 118 -323 232 -439 l60 -61 -202 -201 -201 -201 -95 98 c-190 196
-308 423 -355 683 -26 142 -23 366 6 495 32 146 34 159 17 191 -9 16 -258 271
-554 567 l-538 537 -49 0 c-41 0 -53 -5 -82 -34 -26 -26 -34 -42 -34 -71 0
-47 12 -69 68 -127 l46 -48 -234 0 -234 0 -141 140 -142 140 -47 0 c-39 0 -53
-5 -76 -29 -34 -34 -46 -72 -34 -111 6 -19 192 -215 517 -544 l508 -515 -10
-78 c-56 -430 24 -903 218 -1299 114 -232 250 -421 436 -607 l99 -98 -242
-242 -242 -242 -1287 1287 -1288 1288 507 507 c339 340 509 517 513 536 20 79
-32 147 -113 147 l-47 0 -567 -568 -568 -567 0 -50 0 -50 1403 -1402 1402
-1403 50 0 50 0 1417 1418 1418 1417 0 50 0 49 -447 448 -448 448 270 0 270 0
468 -468 c257 -257 467 -471 467 -476 0 -5 -702 -713 -1560 -1572 -1073 -1075
-1566 -1575 -1576 -1600 -18 -44 -7 -89 32 -125 20 -19 37 -24 76 -24 l51 0
1624 1630 c1168 1173 1626 1638 1632 1660 4 16 4 43 -1 60 -5 21 -146 167
-450 472 l-443 443 255 0 255 0 487 -487 488 -488 -1781 -1781 -1782 -1782 -4
-49 c-5 -42 -2 -53 22 -81 28 -34 76 -49 122 -38 34 9 3676 3645 3694 3688 6
16 8 43 5 65 -7 34 -72 103 -569 600 -309 309 -575 567 -590 572 -34 13 -1751
14 -1782 2z m-1481 -860 l339 -340 -16 -94 c-59 -329 -12 -655 137 -962 69
-142 157 -263 279 -389 l97 -101 -187 -187 c-103 -104 -191 -188 -195 -188
-15 0 -144 128 -220 220 -254 303 -408 649 -463 1042 -22 153 -22 432 0 583 9
64 14 128 10 143 -4 17 -111 132 -298 320 l-292 292 235 0 235 0 339 -339z"/>
<path d="M9665 7060 c-26 -13 -500 -480 -1382 -1362 l-1341 -1343 398 -405
399 -405 393 390 c216 214 997 993 1736 1730 1391 1389 1368 1365 1330 1403
-9 9 -190 12 -753 12 -718 0 -741 -1 -780 -20z"/>
<path d="M11645 7073 c-11 -3 -39 -18 -61 -34 -46 -31 -2696 -2690 -2692
-2700 2 -3 181 -187 398 -408 l395 -401 1743 1742 c958 959 1742 1751 1742
1760 0 9 -7 24 -16 32 -14 14 -95 16 -752 15 -405 -1 -746 -4 -757 -6z"/>
</g>
</svg>
