<svg width="35" height="35" viewBox="0 0 35 35" fill="none" xmlns="http://www.w3.org/2000/svg">
<rect width="35" height="35" rx="17.5" fill="#222222"/>
<path d="M11.7065 16.916C11.7065 16.584 11.8237 16.3057 12.0581 16.0811C12.2974 15.8564 12.6074 15.7441 12.9883 15.7441C13.374 15.7441 13.6816 15.8564 13.9111 16.0811C14.1455 16.3057 14.2627 16.584 14.2627 16.916C14.2627 17.2432 14.1455 17.519 13.9111 17.7437C13.6816 17.9683 13.374 18.0806 12.9883 18.0806C12.6074 18.0806 12.2974 17.9683 12.0581 17.7437C11.8237 17.519 11.7065 17.2432 11.7065 16.916ZM16.1597 16.916C16.1597 16.584 16.2769 16.3057 16.5112 16.0811C16.7505 15.8564 17.0605 15.7441 17.4414 15.7441C17.8271 15.7441 18.1348 15.8564 18.3643 16.0811C18.5986 16.3057 18.7158 16.584 18.7158 16.916C18.7158 17.2432 18.5986 17.519 18.3643 17.7437C18.1348 17.9683 17.8271 18.0806 17.4414 18.0806C17.0605 18.0806 16.7505 17.9683 16.5112 17.7437C16.2769 17.519 16.1597 17.2432 16.1597 16.916ZM20.6128 16.916C20.6128 16.584 20.73 16.3057 20.9644 16.0811C21.2036 15.8564 21.5137 15.7441 21.8945 15.7441C22.2803 15.7441 22.5879 15.8564 22.8174 16.0811C23.0518 16.3057 23.1689 16.584 23.1689 16.916C23.1689 17.2432 23.0518 17.519 22.8174 17.7437C22.5879 17.9683 22.2803 18.0806 21.8945 18.0806C21.5137 18.0806 21.2036 17.9683 20.9644 17.7437C20.73 17.519 20.6128 17.2432 20.6128 16.916Z" fill="white"/>
</svg>
