<svg width="35" height="36" viewBox="0 0 35 36" fill="none" xmlns="http://www.w3.org/2000/svg">
<circle cx="17.5" cy="18.5" r="17.5" fill="#222222"/>
<path d="M9.77539 19.5547C9.77539 19.112 9.93164 18.7409 10.2441 18.4414C10.5632 18.1419 10.9766 17.9922 11.4844 17.9922C11.9987 17.9922 12.4089 18.1419 12.7148 18.4414C13.0273 18.7409 13.1836 19.112 13.1836 19.5547C13.1836 19.9909 13.0273 20.3587 12.7148 20.6582C12.4089 20.9577 11.9987 21.1074 11.4844 21.1074C10.9766 21.1074 10.5632 20.9577 10.2441 20.6582C9.93164 20.3587 9.77539 19.9909 9.77539 19.5547ZM15.7129 19.5547C15.7129 19.112 15.8691 18.7409 16.1816 18.4414C16.5007 18.1419 16.9141 17.9922 17.4219 17.9922C17.9362 17.9922 18.3464 18.1419 18.6523 18.4414C18.9648 18.7409 19.1211 19.112 19.1211 19.5547C19.1211 19.9909 18.9648 20.3587 18.6523 20.6582C18.3464 20.9577 17.9362 21.1074 17.4219 21.1074C16.9141 21.1074 16.5007 20.9577 16.1816 20.6582C15.8691 20.3587 15.7129 19.9909 15.7129 19.5547ZM21.6504 19.5547C21.6504 19.112 21.8066 18.7409 22.1191 18.4414C22.4382 18.1419 22.8516 17.9922 23.3594 17.9922C23.8737 17.9922 24.2839 18.1419 24.5898 18.4414C24.9023 18.7409 25.0586 19.112 25.0586 19.5547C25.0586 19.9909 24.9023 20.3587 24.5898 20.6582C24.2839 20.9577 23.8737 21.1074 23.3594 21.1074C22.8516 21.1074 22.4382 20.9577 22.1191 20.6582C21.8066 20.3587 21.6504 19.9909 21.6504 19.5547Z" fill="white"/>
</svg>
