<svg width="24" height="25" viewBox="0 0 24 25" fill="none" xmlns="http://www.w3.org/2000/svg">
<path d="M21.6036 6.67367L11.6131 16.6111C10.6182 17.6007 7.66501 18.059 7.00526 17.4028C6.34551 16.7465 6.79582 13.809 7.79068 12.8194L17.7917 2.87155C18.0383 2.60391 18.3369 2.38876 18.6695 2.23907C19.002 2.08939 19.3616 2.00824 19.7265 2.00059C20.0914 1.99296 20.4541 2.05894 20.7927 2.19457C21.1313 2.33021 21.4387 2.53271 21.6965 2.78979C21.9542 3.04688 22.1569 3.35323 22.2923 3.69038C22.4277 4.02753 22.4932 4.38847 22.4845 4.75144C22.4758 5.11441 22.3932 5.4719 22.2419 5.80226C22.0904 6.13263 21.8733 6.42907 21.6036 6.67367Z" stroke="white" stroke-width="2" stroke-linecap="round" stroke-linejoin="round"/>
<path d="M10.8381 4.17383H5.60197C4.49101 4.17383 3.42562 4.61281 2.64004 5.39421C1.85448 6.17562 1.41309 7.23542 1.41309 8.34049V18.7572C1.41309 19.8623 1.85448 20.9221 2.64004 21.7034C3.42562 22.4849 4.49101 22.9238 5.60197 22.9238H17.1214C19.4358 22.9238 20.2631 21.0488 20.2631 18.7572V13.5488" stroke="white" stroke-width="2" stroke-linecap="round" stroke-linejoin="round"/>
</svg>
