<svg width="15" height="16" viewBox="0 0 15 16" fill="none" xmlns="http://www.w3.org/2000/svg">
<path fill-rule="evenodd" clip-rule="evenodd" d="M11.9615 13.9231C11.0056 13.9231 10.2308 13.1999 10.2308 12.3077C10.2308 11.4155 11.0056 10.6923 11.9615 10.6923C12.9175 10.6923 13.6923 11.4155 13.6923 12.3077C13.6923 13.1999 12.9175 13.9231 11.9615 13.9231ZM3.88462 9.61539C2.92865 9.61539 2.15385 8.89223 2.15385 8C2.15385 7.10831 2.92865 6.38462 3.88462 6.38462C4.84058 6.38462 5.61538 7.10831 5.61538 8C5.61538 8.89223 4.84058 9.61539 3.88462 9.61539ZM11.9615 2.07692C12.9175 2.07692 13.6923 2.80008 13.6923 3.69231C13.6923 4.58454 12.9175 5.30769 11.9615 5.30769C11.0056 5.30769 10.2308 4.58454 10.2308 3.69231C10.2308 2.80008 11.0056 2.07692 11.9615 2.07692ZM11.9615 9.61539C10.9404 9.61539 10.049 10.1135 9.53615 10.8603L6.44674 9.21262C6.64635 8.84647 6.76923 8.43831 6.76923 8C6.76923 7.72915 6.71328 7.47284 6.63366 7.22622L9.84769 5.51231C10.3744 6.04539 11.1233 6.38462 11.9615 6.38462C13.555 6.38462 14.8462 5.17954 14.8462 3.69231C14.8462 2.20508 13.555 1 11.9615 1C10.3681 1 9.07692 2.20508 9.07692 3.69231C9.07692 3.96315 9.13288 4.21946 9.21249 4.46661L5.99846 6.18C5.47173 5.64746 4.72288 5.30769 3.88462 5.30769C2.29115 5.30769 1 6.51277 1 8C1 9.48723 2.29115 10.6923 3.88462 10.6923C4.54231 10.6923 5.14172 10.4791 5.62692 10.1334L5.61538 10.1538L9.10865 12.0169C9.09711 12.1139 9.07692 12.2075 9.07692 12.3077C9.07692 13.7949 10.3681 15 11.9615 15C13.555 15 14.8462 13.7949 14.8462 12.3077C14.8462 10.8205 13.555 9.61539 11.9615 9.61539Z" fill="#1C1B1B" stroke="#D8D8D8" stroke-width="0.3"/>
</svg>
