<svg width="30" height="27" viewBox="0 0 30 27" fill="none" xmlns="http://www.w3.org/2000/svg">
<path fill-rule="evenodd" clip-rule="evenodd" d="M23.4158 0C24.1391 0 24.8328 0.258599 25.3443 0.718924L29.2012 4.19017C29.7127 4.65049 30 5.27481 30 5.9258V23.3182C30 25.3517 28.1685 27 25.9091 27H4.09091C1.83157 27 0 25.3517 0 23.3182V3.68182C0 1.64841 1.83157 0 4.09091 0H23.4158ZM2.72727 3.68182C2.72727 3.00402 3.3378 2.45455 4.09091 2.45455H8.18182V4.90909C8.18182 6.9425 10.0134 8.59091 12.2727 8.59091H17.7273C19.9867 8.59091 21.8182 6.9425 21.8182 4.90909V2.45455H22.0522C22.7755 2.45455 23.4691 2.71314 23.9806 3.17347L26.4739 5.41744C26.9854 5.87776 27.2727 6.50208 27.2727 7.15307V23.3182C27.2727 23.996 26.6622 24.5455 25.9091 24.5455H24.5455V17.1818C24.5455 15.1483 22.714 13.5 20.4545 13.5H9.54545C7.28611 13.5 5.45455 15.1483 5.45455 17.1818V24.5455H4.09091C3.3378 24.5455 2.72727 23.996 2.72727 23.3182V3.68182ZM21.8182 17.1818V24.5455H8.18182V17.1818C8.18182 16.504 8.79235 15.9545 9.54545 15.9545H20.4545C21.2077 15.9545 21.8182 16.504 21.8182 17.1818ZM19.0909 2.45455H10.9091V4.90909C10.9091 5.58689 11.5196 6.13636 12.2727 6.13636H17.7273C18.4804 6.13636 19.0909 5.58689 19.0909 4.90909V2.45455Z" fill="white"/>
</svg>
