<svg width="47" height="45" viewBox="0 0 47 45" fill="none" xmlns="http://www.w3.org/2000/svg">
<path d="M23.5 42.1875C34.8564 42.1875 44.0625 33.3731 44.0625 22.5C44.0625 11.6269 34.8564 2.8125 23.5 2.8125C12.1436 2.8125 2.9375 11.6269 2.9375 22.5C2.9375 33.3731 12.1436 42.1875 23.5 42.1875Z" fill="url(#paint0_linear_24_4)"/>
<path d="M33.7616 14.3561C33.9446 13.2234 32.8198 12.3294 31.7679 12.7716L10.8171 21.5786C10.0627 21.8957 10.1179 22.9898 10.9003 23.2283L15.2208 24.5457C16.0455 24.7971 16.9384 24.667 17.6585 24.1907L27.3995 17.7473C27.6933 17.553 28.0135 17.9529 27.7625 18.2005L20.7506 25.1221C20.0705 25.7936 20.2054 26.9314 21.0237 27.4226L28.8742 32.136C29.7547 32.6647 30.8874 32.1337 31.052 31.1148L33.7616 14.3561Z" fill="white"/>
<defs>
<linearGradient id="paint0_linear_24_4" x1="23.5" y1="2.8125" x2="23.5" y2="42.1875" gradientUnits="userSpaceOnUse">
<stop stop-color="#37BBFE"/>
<stop offset="1" stop-color="#007DBB"/>
</linearGradient>
</defs>
</svg>
